{"title":"Robot And Frank 2012 BRRip 720p x264 AAC - PRiSTiNE [P2PDL]","uid":8226819,"size":575561883,"categoryP":"video","categoryS":"hd___movies","magnet":"?xt=urn:btih:7b48ffbbdc3dab30f978cb375bd7001b9d22eb6c&amp;dn=Robot+And+Frank+2012+BRRip+720p+x264+AAC+-+PRiSTiNE+%5BP2PDL%5D&amp;tr=udp%3A%2F%2Ftracker.openbittorrent.com%3A80&amp;tr=udp%3A%2F%2Fopen.demonii.com%3A1337&amp;tr=udp%3A%2F%2Ftracker.coppersurfer.tk%3A6969&amp;tr=udp%3A%2F%2Fexodus.desync.com%3A6969","seeders":0,"leechers":1,"uploader":"Vitamin_X","files":-1,"time":1362621755,"description":"_________________________  Visit us at _________________________\n  &lt;a href=&quot;\nhttp://p2pdl.com&quot; rel=&quot;nofollow&quot; target=&quot;_NEW&quot;&gt;\nhttp://p2pdl.com&lt;/a&gt;  ____________________________ &lt;a href=&quot; http://p2pdl.com&quot; rel=&quot;nofollow&quot; target=&quot;_NEW&quot;&gt; http://p2pdl.com&lt;/a&gt;\n\nRobot And Frank 2012 BRRip 720p x264 AAC - PRiSTiNE\n\nGenre: Comedy | Crime | Drama | Sci-Fi\nPlot: Set in the near future, an ex-jewel thief receives \na gift from his son: a robot butler programmed to look \nafter him. But soon the two companions try their luck \nas a heist team.\nDirector: Jake Schreier\nStars: Peter Sarsgaard, Frank Langella, Susan Sarandon\nRated: Rated PG-13 for some language\n\nInfo: &lt;a href=&quot;\nhttp://www.imdb.com/title/tt1990314/&quot; rel=&quot;nofollow&quot; target=&quot;_NEW&quot;&gt;\nhttp://www.imdb.com/title/tt1990314/&lt;/a&gt;\n\nGeneral\nComplete name                  : Robot And Frank 2012 BRRip 720p x264 AAC - PRiSTiNE.mp4\nFormat                         : MPEG-4\nFormat profile                 : Base Media\nCodec ID                       : isom\nFile size                      : 542 MiB\nDuration                       : 1h 29mn\nOverall bit rate mode          : Variable\nOverall bit rate               : 852 Kbps\n\nSource                         : 720p BluRay PHD (Thanks)\n\nVideo\nFormat/Info                    : Advanced Video Codec\nFormat profile                 : High &lt;a class=&quot;__cf_email__&quot; href=&quot;/cdn-cgi/l/email-protection&quot; data-cfemail=&quot;714041313d455f40&quot;&gt;[email&amp;#160;protected]&lt;/a&gt;&lt;script cf-hash='f9e31' type=&quot;text/javascript&quot;&gt;\n/* &lt;![CDATA[ */!function(){try{var t=&quot;currentScript&quot;in document?document.currentScript:function(){for(var t=document.getElementsByTagName(&quot;script&quot;),e=t.length;e--;)if(t[e].getAttribute(&quot;cf-hash&quot;))return t[e]}();if(t&amp;&amp;t.previousSibling){var e,r,n,i,c=t.previousSibling,a=c.getAttribute(&quot;data-cfemail&quot;);if(a){for(e=&quot;&quot;,r=parseInt(a.substr(0,2),16),n=2;a.length-n;n+=2)i=parseInt(a.substr(n,2),16)^r,e+=String.fromCharCode(i);e=document.createTextNode(e),c.parentNode.replaceChild(e,c)}}}catch(u){}}();/* ]]&gt; */&lt;/script&gt;\nDuration                       : 1h 29mn\nBit rate                       : 765 Kbps\nWidth                          : 1 280 pixels\nHeight                         : 534 pixels\nDisplay aspect ratio           : 2.40:1\nFrame rate mode                : Constant\nFrame rate                     : 23.976 fps\nColor space                    : YUV\nChroma subsampling             : 4:2:0\nBit depth                      : 10 bits\nScan type                      : Progressive\nBits/(Pixel*Frame)             : 0.047\nStream size                    : 487 MiB (90%)\nWriting library                : x264 core 129 r2245 bc13772\n\nAudio\nFormat                         : AAC\nDuration                       : 1h 29mn\nBit rate mode                  : Variable\nBit rate                       : 83.9 Kbps\nChannel(s)                     : 2 channels\nChannel positions              : Front: L R\nSampling rate                  : 48.0 KHz / 24.0 KHz\nCompression mode               : Lossy\nStream size                    : 53.4 MiB (10%)\nLanguage                       : English\n\nSubtitle                       : Yes (English)\n\nScreens: &lt;a href=&quot;\nhttp://imgr.us/images/8qxhv739ggwzx05shqo.jpg&quot; rel=&quot;nofollow&quot; target=&quot;_NEW&quot;&gt;\nhttp://imgr.us/images/8qxhv739ggwzx05shqo.jpg&lt;/a&gt; &lt;a href=&quot;\nhttp://imgr.us/images/9gotzfeznmtzvnpnmel9.jpg&quot; rel=&quot;nofollow&quot; target=&quot;_NEW&quot;&gt;\nhttp://imgr.us/images/9gotzfeznmtzvnpnmel9.jpg&lt;/a&gt; &lt;a href=&quot;\nhttp://imgr.us/images/wwenuxaw9o1m48a4xfmx.jpg&quot; rel=&quot;nofollow&quot; target=&quot;_NEW&quot;&gt;\nhttp://imgr.us/images/wwenuxaw9o1m48a4xfmx.jpg&lt;/a&gt; &lt;a href=&quot;\nhttp://imgr.us/images/u7te2oz6mvnbh6fqmav4.jpg&quot; rel=&quot;nofollow&quot; target=&quot;_NEW&quot;&gt;\nhttp://imgr.us/images/u7te2oz6mvnbh6fqmav4.jpg&lt;/a&gt;\n\nThumbs: &lt;a href=&quot;\nhttp://imgr.us/images/bmfni09r29uft1xxt3ad.jpg&quot; rel=&quot;nofollow&quot; target=&quot;_NEW&quot;&gt;\nhttp://imgr.us/images/bmfni09r29uft1xxt3ad.jpg&lt;/a&gt;\n----------------------------------------------------------------------------------------------------\nEncoded using revolutionary 10bit encoding, which enables us to provide you more crispier \nand sharper images at small sizes, just make sure you follow our instructions without a fault.\nRecommend to you to use latest version of VLC player. Install K-Lite Codec Pack or shark007 codecs\nin case of any kind of problem in playback (For non-VLC Media Player users). Alternatively, install\nCore AVC codecs, the fastest decoder that there is coupled with Community Center Codec Pack and play\non Windows Media Player Classic. Check sample to be sure.\nEnjoy!","torrent":{"xt":"urn:btih:7b48ffbbdc3dab30f978cb375bd7001b9d22eb6c","amp;dn":"Robot+And+Frank+2012+BRRip+720p+x264+AAC+-+PRiSTiNE+%5BP2PDL%5D","amp;tr":["udp%3A%2F%2Ftracker.openbittorrent.com%3A80","udp%3A%2F%2Fopen.demonii.com%3A1337","udp%3A%2F%2Ftracker.coppersurfer.tk%3A6969","udp%3A%2F%2Fexodus.desync.com%3A6969"],"infoHash":"7b48ffbbdc3dab30f978cb375bd7001b9d22eb6c","infoHashBuffer":{"type":"Buffer","data":[123,72,255,187,220,61,171,48,249,120,203,55,91,215,0,27,157,34,235,108]},"announce":[],"urlList":[]}}